# xmcd CD database file
#
# Track frame offsets:
#	150
#	25323
#	51471
#	70194
#	90642
#	102690
#	135588
#	158361
#	183234
#	199032
#	222105
#	252678
#	281001
#	299649
#	319347
#
# Disc length: 4716 seconds
#
# Revision: 0
# Processed by: cddbd v1.5.2PL0 Copyright (c) Steve Scherf et al.
# Submitted via: CDex 1.70beta2
#
DISCID=eb126a0f
DTITLE=SUPERTRAMP - The very best of SUPERTRAMP
DYEAR=1992
DGENRE=AOR Classic Rock
TTITLE0=School
TTITLE1=Goodbye stranger
TTITLE2=The logical song
TTITLE3=Bloody well right
TTITLE4=Breakfast in America
TTITLE5=Rudy
TTITLE6=Take the long way hyome
TTITLE7=Crime of the century
TTITLE8=Dreamer
TTITLE9=Ain't nobody but me
TTITLE10=Hide in your shell
TTITLE11=From now on
TTITLE12=Give a little bit
TTITLE13=It's raining again
TTITLE14=Cannonball
EXTD=YEAR: 1992
EXTT0=
EXTT1=
EXTT2=
EXTT3=
EXTT4=
EXTT5=
EXTT6=
EXTT7=
EXTT8=
EXTT9=
EXTT10=
EXTT11=
EXTT12=
EXTT13=
EXTT14=
PLAYORDER=
